# xmcd
#
# Track frame offsets:
#	150
#	12802
#	27267
#	36772
#	50377
#	63905
#	77679
#	89860
#	106685
#	124675
#	137392
#	150722
#	169595
#	183442
#	200860
#	212095
#
# Disc length: 3050
#
# Revision: 3
# Processed by: cddbd v1.5.1PL0 Copyright (c) Steve Scherf et al.
# Submitted via: VisiTrax 2.9.5.180 - For more info visit www.synapsa.com
# Normalized: r2:DSETVAR1
#
DISCID=d00be810
DTITLE=Various Artist - Real Country cd 2
DYEAR=1900
DGENRE=
TTITLE0=The Bellamy Brothers - Let Your Love Flow
TTITLE1=Dr. Hook featuring Ray Sawyer - Always crying over you
TTITLE2=Tamra Rosanes - Long way home
TTITLE3=Kenny Rogers - I will always love you
TTITLE4=Dolly Parton - Behind closed doors
TTITLE5=Henning Kvitnes - Everyday life
TTITLE6=Tammy Wynette - Stand by your man
TTITLE7=Smokie - Rose-A-Lee
TTITLE8=Rick Nelson - Garden Party
TTITLE9=Olivia Newton John - I never knew love
TTITLE10=Marty Stuart - If I ain't got you
TTITLE11=Baby Miss Julia - November
TTITLE12=John Denver - Thank God I'm a country boy
TTITLE13=The Mavericks - What a crying shame
TTITLE14=Willie Nelson and Curtis Potter - The party is over
TTITLE15=Lean Rimes - One Way ticket
EXTD=
EXTT0=
EXTT1=
EXTT2=
EXTT3=
EXTT4=
EXTT5=
EXTT6=
EXTT7=
EXTT8=
EXTT9=
EXTT10=
EXTT11=
EXTT12=
EXTT13=
EXTT14=
EXTT15=
PLAYORDER=
